<?xml version="1.0" encoding="UTF-8"?>
<!DOCTYPE svg PUBLIC "-//W3C//DTD SVG 1.1//EN" "http://www.w3.org/Graphics/SVG/1.1/DTD/svg11.dtd">
<svg xmlns="http://www.w3.org/2000/svg" version="1.1" width="192px" height="192px" style="shape-rendering:geometricPrecision; text-rendering:geometricPrecision; image-rendering:optimizeQuality; fill-rule:evenodd; clip-rule:evenodd" xmlns:xlink="http://www.w3.org/1999/xlink">
<g><path style="opacity:0.997" fill="#298fc2" d="M 82.5,-0.5 C 91.1667,-0.5 99.8333,-0.5 108.5,-0.5C 154.5,8.83333 182.167,36.5 191.5,82.5C 191.5,91.1667 191.5,99.8333 191.5,108.5C 182.167,154.5 154.5,182.167 108.5,191.5C 99.8333,191.5 91.1667,191.5 82.5,191.5C 36.5,182.167 8.83333,154.5 -0.5,108.5C -0.5,99.8333 -0.5,91.1667 -0.5,82.5C 8.83333,36.5 36.5,8.83333 82.5,-0.5 Z M 102.5,57.5 C 104.527,57.3379 106.527,57.5045 108.5,58C 124.763,63.1438 141.096,67.9771 157.5,72.5C 157.773,74.451 157.107,75.951 155.5,77C 132.667,84.1667 109.833,91.3333 87,98.5C 72.9324,89.8809 58.7658,81.3809 44.5,73C 38.3026,71.5001 35.636,74.0001 36.5,80.5C 36.377,85.1879 37.7103,89.3545 40.5,93C 55.3603,104.027 70.3603,114.86 85.5,125.5C 88.8551,125.678 92.1884,124.845 95.5,123C 116.566,113.594 137.232,104.761 157.5,96.5C 157.714,98.1439 157.38,99.6439 156.5,101C 132.84,112.003 109.173,122.669 85.5,133C 70.0227,121.024 54.6894,108.857 39.5,96.5C 33.9109,89.8036 32.0775,82.137 34,73.5C 36.8634,70.4847 40.3634,68.6513 44.5,68C 63.9881,64.5873 83.3214,61.0873 102.5,57.5 Z"/></g>
</svg>
